<svg width="32" height="32" viewBox="0 0 32 32" fill="none" xmlns="http://www.w3.org/2000/svg">
<path d="M9.33341 5.33341H8.00008C5.05456 5.33341 2.66675 7.72123 2.66675 10.6667H29.3334C29.3334 7.72123 26.9456 5.33341 24.0001 5.33341H22.6667V2.66675H20.0001V5.33341H12.0001V2.66675H9.33341V5.33341Z" fill="white"/>
<path fill-rule="evenodd" clip-rule="evenodd" d="M2.66675 13.3334V21.3334C2.66675 24.2789 5.05456 26.6667 8.00008 26.6667H24.0001C26.9456 26.6667 29.3334 24.2789 29.3334 21.3334V13.3334H2.66675ZM8.00008 18.6667V16.0001H10.6667V18.6667H8.00008ZM17.3334 16.0001H14.6667V18.6667H17.3334V16.0001ZM21.3334 18.6667V16.0001H24.0001V18.6667H21.3334Z" fill="white"/>
</svg>
