<svg width="28" height="28" viewBox="0 0 28 28" fill="none" xmlns="http://www.w3.org/2000/svg">
<path fill-rule="evenodd" clip-rule="evenodd" d="M13.6 27.2C21.1111 27.2 27.2 21.1111 27.2 13.6C27.2 6.08893 21.1111 0 13.6 0C6.08892 0 0 6.08893 0 13.6C0 21.1111 6.08892 27.2 13.6 27.2ZM15.3 6.8C15.3 5.86112 14.5389 5.1 13.6 5.1C12.6611 5.1 11.9 5.86112 11.9 6.8V13.6C11.9 14.0509 12.0791 14.4833 12.3979 14.8021L17.2062 19.6104C17.8701 20.2743 18.9465 20.2743 19.6104 19.6104C20.2743 18.9465 20.2743 17.8701 19.6104 17.2062L15.3 12.8958V6.8Z" fill="#EEEEEE"/>
</svg>
