<svg width="32" height="32" viewBox="0 0 32 32" fill="none" xmlns="http://www.w3.org/2000/svg">
<path d="M10.6667 4C6.98477 4 4 6.98477 4 10.6667V12C4 15.6819 6.98477 18.6667 10.6667 18.6667H12C15.6819 18.6667 18.6667 15.6819 18.6667 12V10.6667C18.6667 6.98477 15.6819 4 12 4H10.6667Z" fill="white"/>
<path d="M4 24C4 21.7909 5.79086 20 8 20H14.6667C16.8758 20 18.6667 21.7909 18.6667 24C18.6667 26.2091 16.8758 28 14.6667 28H8C5.79086 28 4 26.2091 4 24Z" fill="white"/>
<path d="M24 13.3333C21.7909 13.3333 20 15.1242 20 17.3333V24C20 26.2091 21.7909 28 24 28C26.2091 28 28 26.2091 28 24V17.3333C28 15.1242 26.2091 13.3333 24 13.3333Z" fill="white"/>
<path d="M24 4C21.7909 4 20 5.79086 20 8C20 10.2091 21.7909 12 24 12C26.2091 12 28 10.2091 28 8C28 5.79086 26.2091 4 24 4Z" fill="white"/>
</svg>
