<svg width="31" height="31" viewBox="0 0 31 31" fill="none" xmlns="http://www.w3.org/2000/svg">
<path d="M19.3749 8.53375C18.4709 7.26075 17.8015 5.86331 17.7621 4.045C17.7605 3.96877 17.6772 3.92143 17.6115 3.96007C13.0302 6.6532 13.1785 13.5491 13.2311 14.63C13.2345 14.7009 13.167 14.7474 13.1022 14.7183C12.6226 14.5029 11.047 13.5957 10.9812 10.9496C10.9793 10.8733 10.897 10.8235 10.831 10.862C8.21573 12.3921 6.45825 15.2429 6.45825 18.4062C6.45825 23.2215 10.5063 27.125 15.4999 27.125C20.4935 27.125 24.5416 23.2215 24.5416 18.4062C24.5416 15.656 23.5195 13.7545 22.2689 12.1065" stroke="white" stroke-width="1.5" stroke-linecap="round"/>
</svg>
